<?xml version="1.0" standalone="no"?>
<!DOCTYPE svg PUBLIC "-//W3C//DTD SVG 20010904//EN"
 "http://www.w3.org/TR/2001/REC-SVG-20010904/DTD/svg10.dtd">
<svg version="1.0" xmlns="http://www.w3.org/2000/svg"
 width="280.000000pt" height="280.000000pt" viewBox="0 0 280.000000 280.000000"
 preserveAspectRatio="xMidYMid meet">
<metadata>
Created by potrace 1.11, written by Peter Selinger 2001-2013
</metadata>
<g transform="translate(0.000000,280.000000) scale(0.100000,-0.100000)"
fill="#000000" stroke="none">
<path d="M0 2710 c0 -104 8 -114 67 -86 20 9 38 15 41 12 2 -3 -9 -62 -27
-130 -17 -69 -31 -130 -31 -136 0 -15 54 27 80 62 22 29 22 31 5 68 -15 33
-15 41 -4 53 12 13 17 13 36 -5 l22 -20 25 25 c29 29 35 67 11 67 -8 0 -15 7
-15 16 0 10 7 14 22 12 11 -2 23 3 25 10 3 6 0 12 -6 12 -6 0 -11 5 -11 10 0
6 6 10 14 10 16 0 26 21 26 55 0 54 -2 55 -146 55 l-134 0 0 -90z"/>
<path d="M432 2678 c3 -68 9 -131 13 -140 14 -35 31 -17 47 51 9 38 30 99 47
136 17 36 31 68 31 71 0 2 -12 4 -26 4 -20 0 -29 -9 -47 -47 l-22 -48 -3 48
c-3 40 -6 47 -24 47 -20 0 -20 -4 -16 -122z"/>
<path d="M591 2787 c-9 -12 -41 -92 -41 -104 0 -3 6 -1 13 4 6 6 24 13 38 17
33 7 38 21 27 64 -9 35 -19 40 -37 19z"/>
<path d="M868 2783 c-8 -10 -45 -68 -81 -128 -47 -77 -67 -121 -67 -144 0 -20
-21 -74 -55 -140 -49 -96 -64 -116 -141 -186 -88 -80 -196 -208 -274 -324 -51
-77 -130 -240 -130 -270 0 -12 -7 -35 -15 -52 -16 -29 -13 -49 6 -49 5 0 9 5
9 11 0 17 49 137 87 214 83 166 242 370 334 427 27 16 50 34 50 39 1 5 2 12 3
17 0 4 10 21 22 37 33 48 122 238 129 277 8 40 125 260 141 265 7 2 13 -25 17
-73 6 -67 4 -80 -14 -105 -27 -38 -13 -64 44 -80 23 -7 47 -16 53 -21 6 -4 31
-1 56 7 48 17 133 106 144 152 7 26 -24 143 -37 143 -18 0 -17 -20 2 -69 23
-62 19 -80 -28 -132 -54 -59 -97 -82 -139 -74 -45 8 -84 25 -84 37 0 5 10 22
21 38 20 27 21 32 9 97 -16 94 -19 103 -34 103 -7 0 -20 -8 -28 -17z"/>
<path d="M940 2786 c0 -24 18 -28 30 -6 9 17 8 20 -10 20 -11 0 -20 -6 -20
-14z"/>
<path d="M1037 2771 c-4 -20 -3 -39 3 -45 15 -15 18 -4 11 39 l-7 40 -7 -34z"/>
<path d="M1336 2778 c-9 -13 -27 -38 -41 -57 -30 -42 -31 -61 -5 -89 29 -31
86 -44 133 -30 44 13 130 86 152 129 17 32 20 69 5 69 -5 0 -10 -12 -10 -26 0
-31 -96 -136 -142 -155 -25 -10 -38 -10 -71 2 -62 22 -66 38 -25 100 50 78 51
79 35 79 -8 0 -22 -10 -31 -22z"/>
<path d="M1424 2779 c-15 -16 -16 -22 -5 -29 8 -5 12 -17 8 -30 -4 -15 -2 -20
8 -17 7 3 17 1 22 -4 14 -14 35 -2 66 38 40 53 36 63 -26 63 -42 0 -58 -5 -73
-21z"/>
<path d="M1785 2776 c-47 -72 24 -192 127 -215 52 -12 79 -5 129 31 l31 23 -6
79 c-5 53 -3 83 5 92 9 11 7 14 -10 14 -20 0 -25 -12 -22 -50 1 -8 -14 -51
-34 -95 -39 -89 -62 -111 -52 -49 4 22 7 62 7 89 0 35 3 46 10 35 12 -20 28
-4 36 38 5 26 3 32 -11 32 -10 0 -24 -8 -31 -17 -13 -17 -13 -17 -14 0 0 12
-8 17 -26 17 -24 0 -26 -3 -20 -27 3 -16 8 -59 11 -98 6 -76 7 -77 -45 48 -36
84 -56 97 -85 53z m60 -92 c30 -67 33 -93 9 -74 -25 22 -66 99 -60 115 10 28
26 15 51 -41z"/>
<path d="M2300 2785 c0 -8 7 -15 15 -15 8 0 15 7 15 15 0 8 -7 15 -15 15 -8 0
-15 -7 -15 -15z"/>
<path d="M2386 2791 c15 -14 83 -33 94 -26 5 3 10 13 10 21 0 10 -14 14 -57
14 -33 0 -53 -4 -47 -9z"/>
<path d="M2586 2759 c-7 -44 -2 -59 20 -59 9 0 14 10 14 28 0 15 3 37 6 50 5
17 2 22 -14 22 -15 0 -21 -9 -26 -41z"/>
<path d="M1676 2745 c-3 -8 -1 -15 4 -15 6 0 10 7 10 15 0 8 -2 15 -4 15 -2 0
-6 -7 -10 -15z"/>
<path d="M2320 2727 c-31 -11 -35 -16 -35 -46 0 -19 -6 -36 -12 -38 -20 -7
-15 -31 7 -43 11 -6 57 -17 102 -25 45 -8 86 -19 91 -24 15 -15 -10 -39 -53
-51 -21 -6 -49 -19 -62 -30 l-23 -19 31 -1 c43 0 174 35 223 59 52 27 67 53
51 92 -37 87 -223 161 -320 126z m116 -96 c-9 -14 -46 -14 -46 -1 0 6 7 10 15
10 8 0 15 5 15 12 0 9 3 9 11 1 6 -6 8 -16 5 -22z m80 0 c-3 -4 8 -7 24 -5 22
3 28 0 24 -11 -10 -24 -44 -29 -59 -8 -19 24 -18 33 1 33 8 0 13 -4 10 -9z"/>
<path d="M638 2681 c-13 -12 -18 -34 -18 -70 0 -62 15 -95 37 -86 9 3 19 1 23
-4 3 -6 14 14 24 43 l19 54 -29 41 c-16 22 -31 40 -34 40 -3 0 -13 -8 -22 -18z"/>
<path d="M984 2682 c-13 -9 -35 -105 -25 -114 3 -4 20 -10 37 -14 25 -5 37 1
74 34 l44 39 -18 27 c-10 17 -23 25 -32 22 -8 -3 -14 -1 -14 4 0 12 -50 13
-66 2z"/>
<path d="M1410 2665 c0 -8 5 -15 10 -15 6 0 10 7 10 15 0 8 -4 15 -10 15 -5 0
-10 -7 -10 -15z"/>
<path d="M1236 2661 c-4 -6 -2 -16 3 -23 48 -59 60 -68 91 -68 38 0 34 11 -5
16 -33 3 -55 21 -70 58 -7 17 -15 24 -19 17z"/>
<path d="M546 2628 c5 -42 14 -49 14 -10 0 17 -4 33 -9 36 -4 3 -7 -9 -5 -26z"/>
<path d="M1701 2654 c-1 -6 8 -23 19 -37 11 -14 20 -32 20 -40 0 -10 15 -17
46 -22 26 -3 54 -9 63 -11 9 -2 -6 6 -32 20 -52 26 -85 52 -104 82 -6 10 -12
14 -12 8z"/>
<path d="M2666 2634 c-12 -30 -6 -54 12 -54 10 0 23 -5 29 -11 7 -7 15 -5 27
7 21 20 17 59 -6 59 -9 0 -20 4 -24 8 -12 12 -32 8 -38 -9z"/>
<path d="M2182 2587 c-12 -13 -22 -34 -22 -46 0 -26 34 -89 58 -108 14 -11 14
-13 1 -13 -32 0 -99 91 -99 133 0 16 -4 26 -10 22 -14 -8 -2 -54 22 -88 11
-16 18 -31 15 -33 -2 -2 -25 4 -51 15 -65 29 -57 17 12 -16 31 -15 82 -42 112
-60 56 -34 104 -47 66 -18 -23 18 -9 19 31 4 33 -12 102 -4 129 16 25 18 12
30 -14 14 -16 -10 -26 -10 -47 -1 -14 7 -39 12 -56 12 -22 0 -32 6 -39 24 -6
17 -22 29 -50 37 -51 15 -63 49 -31 83 11 12 21 28 21 34 0 20 -25 14 -48 -11z"/>
<path d="M1490 2590 c-11 -7 -7 -10 18 -10 20 0 31 4 27 10 -8 13 -26 13 -45
0z"/>
<path d="M23 2555 c-22 -10 -23 -13 -23 -169 0 -88 3 -157 6 -154 5 5 12 100
18 246 1 24 7 47 15 51 7 5 11 15 9 22 -2 11 -9 12 -25 4z"/>
<path d="M1144 2545 c-10 -8 -14 -14 -9 -15 15 0 40 18 34 24 -3 3 -14 -1 -25
-9z"/>
<path d="M2300 2536 c0 -20 28 -28 53 -14 21 11 21 11 2 19 -32 12 -55 10 -55
-5z"/>
<path d="M546 2497 c13 -44 74 -67 74 -28 0 22 -8 29 -51 41 -28 8 -30 7 -23
-13z"/>
<path d="M832 2475 c18 -25 36 -41 40 -37 8 8 -53 82 -66 82 -3 0 9 -20 26
-45z"/>
<path d="M1970 2511 c8 -5 25 -12 37 -15 18 -6 22 -4 17 8 -4 10 -18 16 -38
16 -22 -1 -27 -3 -16 -9z"/>
<path d="M252 2502 c-12 -2 -30 -15 -39 -28 -24 -37 -6 -68 53 -88 68 -23 86
-21 78 8 -4 18 -1 25 15 29 21 5 20 37 -3 56 -17 13 -78 27 -104 23z"/>
<path d="M2567 2463 c-4 -3 -7 -21 -7 -40 0 -23 5 -33 15 -33 11 0 15 11 15
40 0 38 -8 49 -23 33z"/>
<path d="M1206 2409 c-107 -14 -264 -48 -342 -74 -91 -31 -191 -78 -175 -83 6
-2 22 3 34 10 34 22 162 66 257 88 182 42 587 44 710 4 27 -9 56 -14 63 -11
16 6 135 -17 145 -28 4 -4 -5 -5 -20 -1 -17 4 -28 2 -28 -4 0 -5 9 -10 20 -10
11 0 20 -6 20 -12 0 -7 5 -5 11 5 12 21 55 22 76 2 9 -10 23 -13 35 -9 13 4
18 2 14 -4 -3 -6 3 -12 15 -14 12 -2 25 -10 29 -18 4 -8 15 -30 24 -47 9 -18
14 -33 11 -33 -4 0 0 -6 8 -14 8 -8 27 -60 42 -115 21 -78 25 -104 16 -115 -9
-11 -9 -17 2 -27 19 -20 50 -107 43 -124 -3 -9 -12 -12 -22 -8 -11 4 -15 3
-11 -4 4 -6 2 -13 -4 -15 -6 -2 -8 -14 -3 -32 4 -19 9 -24 14 -15 5 7 6 18 3
25 -2 6 0 15 6 19 7 4 11 -8 11 -34 0 -25 -4 -40 -11 -38 -6 1 -14 -4 -16 -11
-3 -8 1 -10 11 -6 10 4 16 1 16 -9 0 -13 -11 -15 -57 -11 -50 3 -139 21 -206
41 -19 5 -57 78 -102 198 -43 116 -46 132 -48 260 -2 116 -8 148 -24 132 -3
-4 -7 -65 -8 -136 -2 -87 -7 -144 -18 -177 -9 -27 -24 -73 -33 -101 -8 -29
-18 -53 -20 -53 -3 0 -28 24 -55 53 -50 51 -51 52 -36 82 36 75 79 231 75 278
-5 77 -22 55 -34 -45 -6 -52 -20 -115 -32 -141 -18 -41 -25 -47 -51 -47 -39 0
-39 8 -1 107 34 87 40 134 15 113 -8 -7 -15 -27 -15 -45 0 -32 -33 -126 -55
-155 -6 -8 -21 -35 -35 -60 -51 -95 -141 -203 -182 -216 -28 -8 -23 -37 5 -29
60 17 167 79 213 122 l51 49 61 -61 61 -60 -19 -40 c-37 -81 -68 -171 -75
-218 -4 -26 -11 -49 -15 -52 -10 -6 -35 56 -44 108 -8 43 -26 50 -27 10 -2
-50 2 -118 7 -135 5 -16 -2 -18 -60 -18 -56 0 -69 4 -97 27 -17 15 -38 42 -45
60 -18 42 -34 42 -34 1 l-1 -33 -32 36 c-47 53 -106 165 -125 235 l-16 60 30
39 c16 21 39 49 52 61 12 13 22 28 22 34 0 6 7 18 15 26 20 21 19 34 -3 34
-11 0 -34 -22 -56 -55 -67 -96 -70 -95 -63 21 6 90 38 230 56 244 20 16 76
128 68 136 -15 15 -96 -106 -115 -171 -7 -25 -30 -58 -63 -90 -71 -70 -70 -69
-145 -175 -37 -52 -71 -97 -76 -98 -4 -2 -6 -7 -3 -12 4 -7 -67 -39 -122 -55
-42 -12 -24 -25 35 -26 31 -1 49 -3 39 -6 -10 -2 -17 -10 -16 -16 3 -21 -13
-97 -22 -103 -5 -3 -6 2 -3 10 3 9 1 16 -5 16 -14 0 -14 -23 0 -37 8 -8 4 -17
-12 -32 l-23 -22 -18 23 c-15 19 -19 21 -27 9 -16 -25 -61 2 -61 36 2 123 58
319 131 451 44 80 47 110 4 42 -88 -139 -172 -383 -180 -520 -2 -30 -7 -85
-11 -122 l-7 -68 -32 0 c-42 0 -43 4 -44 188 -2 145 14 263 41 316 7 12 7 16
0 12 -21 -13 -68 -183 -82 -301 -5 -38 -18 -108 -29 -155 l-21 -85 5 200 c4
178 7 210 30 288 14 49 24 94 22 100 -5 14 -52 -86 -62 -131 -3 -17 -37 -69
-74 -117 -37 -48 -85 -119 -106 -157 -32 -60 -36 -74 -28 -101 9 -31 9 -31 52
54 23 47 59 105 79 128 l37 43 -4 -143 c-2 -116 -6 -149 -20 -169 -24 -35 -57
-108 -70 -156 -15 -56 11 -134 62 -192 20 -22 20 -24 4 -70 -20 -54 -22 -123
-6 -155 13 -25 66 -77 78 -77 5 0 14 6 20 14 9 10 7 30 -5 82 -17 75 -32 310
-24 389 l5 49 18 -27 c9 -15 21 -27 26 -27 14 0 23 32 11 44 -16 16 -12 39 5
32 8 -3 15 -1 15 4 0 6 -4 10 -9 10 -5 0 -11 6 -14 13 -11 29 23 12 38 -19 19
-41 19 -47 -4 -68 -33 -30 -64 -116 -64 -181 -1 -99 69 -219 167 -286 20 -13
36 -29 36 -36 0 -7 6 -10 13 -7 7 2 23 -6 36 -20 14 -15 29 -22 39 -19 11 5
14 2 9 -10 -3 -8 -1 -18 6 -21 7 -2 3 -5 -8 -6 -18 -1 -18 -2 -4 -13 10 -8 18
-34 21 -77 5 -62 5 -63 -7 -25 -10 33 -12 36 -17 17 -4 -12 -2 -22 3 -22 5 0
9 -5 9 -12 0 -6 7 -19 16 -29 14 -16 13 -21 -14 -64 -16 -26 -40 -52 -53 -58
-16 -8 -29 -30 -41 -67 l-17 -55 0 57 c-1 31 -6 60 -12 63 -15 10 -16 7 -24
-70 -11 -121 -23 -192 -34 -214 -10 -19 -9 -21 12 -21 20 0 29 10 47 55 12 31
26 58 31 61 9 5 69 -54 69 -67 0 -4 14 -12 30 -18 16 -5 30 -15 30 -20 0 -7
26 -11 65 -11 65 0 65 0 45 20 -27 27 -25 52 6 90 23 27 28 29 38 14 11 -14
13 -14 25 0 22 26 34 19 27 -16 l-6 -32 24 23 c24 23 41 16 30 -13 -4 -11 -1
-16 11 -16 15 0 17 -6 12 -35 l-6 -35 88 0 c56 0 92 4 100 12 11 10 14 10 18
1 3 -7 18 -13 34 -13 33 0 40 25 12 45 -22 16 -8 35 25 35 40 0 132 -41 132
-59 0 -12 -3 -12 -12 -3 -17 17 -48 15 -48 -3 0 -11 12 -15 44 -15 36 0 46 4
51 20 8 26 35 26 35 0 0 -19 7 -20 93 -20 l93 0 -4 59 -4 60 33 -2 c19 0 42 3
52 7 15 7 17 1 17 -58 l0 -66 49 3 c27 1 48 6 48 11 -1 5 4 11 11 13 6 3 12
-2 12 -11 0 -12 10 -16 41 -16 l42 0 -6 52 c-5 38 -4 49 5 40 8 -8 15 -7 24 6
12 15 15 15 24 2 7 -12 10 -8 10 16 0 33 -22 60 -40 49 -17 -10 -50 -14 -50
-6 0 5 13 11 30 14 21 5 31 14 36 32 9 34 4 37 -34 18 -18 -9 -35 -14 -38 -11
-2 3 10 32 29 64 32 58 43 80 86 176 80 178 149 383 190 563 l28 120 59 1 c81
1 114 10 114 33 0 15 -7 17 -53 13 -46 -4 -57 -1 -81 20 -24 20 -27 29 -22 56
4 18 15 34 26 37 23 7 80 74 80 92 0 19 -21 16 -50 -7 -14 -11 -29 -20 -35
-20 -6 0 -10 69 -10 187 0 257 -11 332 -81 547 -19 59 -33 115 -30 122 10 26
96 -24 91 -54 -4 -28 5 -33 30 -16 13 9 30 12 36 8 9 -5 5 -11 -12 -18 l-24
-10 28 -4 c20 -2 27 -8 23 -18 -3 -8 -1 -14 5 -14 7 0 9 10 5 25 -8 30 -4 31
30 8 26 -16 26 -17 5 -25 -21 -7 -29 -28 -11 -28 6 0 10 5 10 11 0 6 9 9 20 6
13 -3 18 -1 13 6 -3 6 6 2 20 -9 30 -21 34 -34 12 -34 -8 0 -15 -5 -15 -10 0
-7 7 -7 20 0 24 13 41 5 34 -14 -3 -8 0 -17 7 -22 9 -5 10 -2 6 9 -4 12 -1 17
9 17 11 0 15 -6 11 -19 -3 -13 -1 -18 8 -15 16 6 21 -46 31 -271 3 -82 12
-224 19 -314 14 -162 14 -167 -10 -297 -21 -112 -72 -280 -126 -411 -7 -18
-11 -35 -7 -38 17 -17 42 18 75 106 21 54 42 99 46 99 4 0 15 -16 23 -35 18
-44 6 -99 -32 -145 -16 -18 -24 -37 -20 -47 6 -14 9 -14 28 3 58 52 75 167 33
228 -39 58 -31 85 15 48 16 -13 26 -38 35 -86 16 -83 5 -123 -50 -190 -37 -46
-38 -68 -4 -87 22 -12 43 -3 36 16 -3 7 5 30 18 51 l23 39 7 -30 c3 -17 10
-44 14 -62 9 -34 0 -48 -46 -72 -20 -10 -23 -9 -23 9 0 11 -5 20 -11 20 -6 0
-8 -8 -5 -18 4 -12 -6 -35 -30 -65 -20 -25 -33 -50 -30 -56 3 -5 0 -12 -6 -14
-7 -3 35 -3 94 0 l106 5 40 -84 40 -83 1 41 c1 37 -30 135 -50 158 -5 5 -37 8
-73 7 -35 -1 -67 2 -70 7 -3 5 21 26 54 46 33 21 60 41 60 45 0 4 -9 47 -19
96 -65 296 -108 734 -118 1183 -5 235 -9 292 -20 292 -7 0 -13 -3 -13 -7 0 -5
-4 -14 -9 -21 -7 -12 -13 -11 -38 1 -16 9 -36 23 -43 32 -35 42 -207 137 -360
199 -100 41 -311 92 -450 110 -134 17 -331 19 -444 5z m-162 -496 l0 -97 -41
-18 c-22 -10 -64 -20 -93 -24 l-52 -6 28 43 c50 77 142 196 154 198 3 1 5 -43
4 -96z m506 14 c0 -11 -79 -95 -112 -119 -27 -18 -26 -15 12 39 23 32 48 73
56 92 14 33 15 33 29 15 8 -10 15 -22 15 -27z m255 -64 c9 -31 27 -79 41 -106
13 -28 24 -52 24 -53 0 -5 -89 33 -110 47 l-24 16 25 76 c13 42 25 77 26 77 1
0 9 -25 18 -57z m-732 -145 c9 -29 15 -53 14 -54 -1 -1 -23 2 -48 8 -27 6 -59
7 -75 3 -25 -8 -19 -10 38 -15 37 -4 74 -12 82 -20 9 -7 40 -47 70 -89 63 -90
131 -155 153 -147 9 4 24 -1 34 -10 13 -12 44 -18 109 -22 83 -4 90 -3 90 14
1 17 2 17 19 -3 11 -13 24 -23 30 -23 6 0 11 10 11 23 1 82 61 183 125 207 34
13 106 13 141 0 33 -13 43 -5 21 17 -33 33 -194 18 -219 -21 -4 -6 -9 -8 -11
-6 -4 4 49 129 59 139 2 2 41 -11 86 -30 80 -32 113 -57 167 -129 l19 -25
-107 0 c-101 0 -109 -2 -173 -34 -67 -35 -77 -44 -58 -56 6 -3 10 -15 10 -26
0 -23 8 -24 31 -3 37 33 139 39 139 8 0 -7 -13 -28 -28 -45 -28 -31 -30 -32
-73 -21 -38 10 -46 9 -56 -5 -34 -44 -42 -230 -11 -258 14 -14 88 -28 88 -17
0 4 -14 15 -30 24 -40 23 -42 65 -4 74 21 5 24 10 18 28 -4 11 -7 43 -8 70 -1
64 18 79 69 52 27 -15 38 -17 47 -8 16 16 61 15 76 0 24 -24 13 -56 -35 -97
-25 -23 -44 -43 -42 -45 2 -3 17 -8 33 -12 19 -5 27 -3 22 4 -4 6 2 8 15 5 14
-4 17 -8 9 -13 -19 -12 -2 -30 26 -30 14 0 27 -7 30 -15 8 -21 22 -10 41 33
10 24 16 68 17 124 0 49 4 88 8 88 16 0 58 -65 83 -130 15 -38 30 -70 33 -70
4 0 13 -4 20 -8 18 -12 -23 -187 -92 -392 -79 -237 -79 -237 -123 -249 -53
-15 -80 -14 -87 4 -3 8 -15 15 -27 15 -13 0 -30 7 -39 15 -15 14 -21 11 -60
-23 -27 -25 -64 -45 -104 -57 -56 -17 -74 -18 -221 -7 -255 19 -446 69 -660
172 -185 89 -305 184 -345 273 -35 76 -22 158 34 223 29 33 37 37 53 28 24
-15 27 -38 7 -58 -9 -9 -14 -19 -11 -22 2 -3 14 7 26 22 14 18 21 41 21 73 0
57 24 127 42 123 7 -2 24 -14 39 -28 30 -29 39 -30 39 -5 0 12 12 25 30 33 23
10 30 19 30 41 0 27 27 93 35 85 2 -2 -1 -24 -6 -48 -12 -51 -13 -104 -4 -172
l7 -48 41 0 c23 0 49 5 57 10 12 8 11 10 -7 10 -61 0 -75 48 -22 75 27 14 29
18 17 33 -7 9 -19 21 -25 25 -18 11 -16 68 3 95 20 28 47 28 68 0 l16 -23 16
23 c17 23 57 29 83 13 19 -12 8 -92 -14 -106 -48 -29 -51 -35 -15 -28 19 3 38
11 42 17 4 6 11 -1 17 -17 6 -15 15 -27 20 -27 16 0 44 126 39 180 -4 43 -3
50 11 45 10 -3 22 4 30 17 13 21 11 25 -24 55 -56 48 -122 67 -217 60 -43 -3
-85 -11 -93 -17 -21 -17 -19 -2 6 64 19 53 22 55 72 70 29 8 75 21 102 29 71
21 70 22 88 -35z m1020 -109 c68 -10 77 -14 77 -33 0 -20 0 -20 16 2 8 12 20
20 25 17 13 -9 12 -192 -2 -201 -6 -3 -10 1 -9 12 6 52 -12 76 -23 33 -6 -23
-16 -20 -63 21 -38 33 -122 128 -136 153 -9 17 -7 19 13 14 13 -3 59 -11 102
-18z m-1176 -90 c8 -8 7 -20 -5 -45 -18 -35 -27 -37 -94 -18 -31 9 -19 34 25
54 49 23 59 24 74 9z m-297 -112 c0 -59 -9 -55 -27 11 -18 69 -17 79 7 57 15
-14 20 -31 20 -68z m445 55 c0 -18 -20 -15 -23 4 -3 10 1 15 10 12 7 -3 13
-10 13 -16z m1135 -36 c0 -3 -4 -8 -10 -11 -5 -3 -10 -1 -10 4 0 6 5 11 10 11
6 0 10 -2 10 -4z m-185 -101 c0 -28 -29 -25 -33 3 -3 19 0 23 15 20 10 -2 18
-12 18 -23z m-1602 -15 c3 -11 1 -20 -4 -20 -5 0 -9 9 -9 20 0 11 2 20 4 20 2
0 6 -9 9 -20z m88 10 c5 0 9 -26 8 -57 l-1 -58 -24 50 c-28 59 -30 80 -8 71 9
-3 20 -6 25 -6z m-190 -105 c-6 -42 -11 -104 -11 -137 0 -54 -2 -59 -16 -48
-24 20 -46 82 -40 112 7 37 65 162 72 156 3 -3 1 -41 -5 -83z m1663 -40 c3 -8
3 -15 0 -15 -3 0 -12 7 -20 15 -13 13 -13 15 -1 15 8 0 17 -7 21 -15z m-1654
-327 c0 -13 3 -41 6 -63 6 -38 6 -39 -9 -20 -18 22 -23 105 -7 105 6 0 10 -10
10 -22z m468 -284 c12 -8 22 -21 22 -29 0 -8 0 -18 1 -22 0 -4 -4 -9 -10 -11
-6 -2 -11 3 -11 12 0 9 -5 16 -11 16 -6 0 -8 -11 -4 -29 4 -21 2 -30 -11 -35
-21 -8 -33 2 -15 13 10 7 10 11 -2 22 -8 8 -16 32 -19 52 -4 34 -2 36 17 31
11 -3 30 -12 43 -20z m187 -102 c48 -64 62 -73 129 -81 l51 -6 24 -60 c19 -46
25 -79 25 -143 1 -82 0 -84 -32 -113 -25 -22 -42 -29 -73 -29 l-42 0 9 63 c4
34 8 91 9 127 l0 64 -88 27 c-48 15 -111 31 -141 34 l-54 7 -26 -58 c-15 -32
-32 -86 -39 -121 -13 -72 -24 -77 -68 -34 -47 48 -39 100 32 196 65 88 192
190 228 183 8 -2 33 -27 56 -56z m813 33 c-16 -34 -3 -43 25 -17 30 29 39 28
31 -3 -7 -27 4 -32 25 -12 12 10 13 8 6 -8 -4 -11 -10 -30 -13 -43 -2 -13 -28
-41 -58 -63 -49 -36 -54 -43 -54 -78 0 -32 -6 -44 -32 -66 -31 -26 -39 -27
-95 -9 -10 3 -7 -1 7 -9 55 -32 68 -31 107 8 37 37 52 40 34 7 -15 -29 -60
-62 -83 -62 -10 0 -39 9 -63 20 -42 19 -44 23 -41 53 3 17 5 59 5 93 1 77 29
123 85 142 22 7 55 26 75 42 44 36 54 37 39 5z m-736 -34 c-5 -3 -11 -12 -13
-18 -2 -7 -11 0 -21 16 l-16 29 30 -10 c16 -6 26 -13 20 -17z m136 -7 c32 -9
27 -19 -18 -34 -36 -12 -43 -11 -57 2 -30 31 12 48 75 32z m772 -4 c0 -5 -10
-11 -22 -11 -16 -1 -18 -3 -6 -6 14 -4 12 -11 -13 -61 -16 -31 -29 -63 -29
-69 0 -7 -4 -13 -10 -13 -16 0 -12 56 5 70 8 7 13 16 10 20 -3 5 -1 11 5 15 5
3 10 17 10 30 0 22 11 33 38 34 6 1 12 -3 12 -9z m-870 -30 c0 -5 -5 -10 -11
-10 -5 0 -7 5 -4 10 3 6 8 10 11 10 2 0 4 -4 4 -10z m398 -9 c16 -9 13 -42 -4
-48 -12 -4 -36 42 -27 51 8 8 15 7 31 -3z m-260 -20 c3 -8 -1 -12 -9 -9 -7 2
-15 10 -17 17 -3 8 1 12 9 9 7 -2 15 -10 17 -17z m581 -102 c-12 -8 -12 -11 1
-18 8 -6 11 -13 7 -17 -4 -4 -13 1 -21 11 -10 14 -10 22 -2 31 6 6 15 10 20 7
4 -3 2 -9 -5 -14z m-488 -16 c19 -9 51 -16 71 -16 30 2 42 -4 59 -25 l21 -27
-24 -6 c-22 -7 -22 -7 4 -8 15 -1 30 -6 34 -12 4 -8 -20 -10 -82 -7 -81 3 -89
5 -89 23 0 11 -6 24 -13 28 -7 5 -10 17 -7 28 8 23 -2 24 -26 3 -20 -18 -53
-12 -47 8 4 10 30 22 59 27 3 1 21 -7 40 -16z m501 -75 c-7 -7 -12 -8 -12 -2
0 14 12 26 19 19 2 -3 -1 -11 -7 -17z m-297 -18 c3 -5 -1 -10 -10 -10 -9 0
-13 5 -10 10 3 6 8 10 10 10 2 0 7 -4 10 -10z m-873 -81 c12 -10 20 -20 17
-24 -4 -3 -14 1 -22 10 -9 8 -20 15 -25 15 -10 0 -32 44 -32 63 0 7 9 -1 20
-18 10 -16 29 -37 42 -46z m640 49 c15 15 50 15 83 0 19 -8 31 -9 43 -1 16 9
82 7 82 -4 0 -18 -25 -43 -51 -52 -48 -17 -80 -13 -126 13 -24 14 -51 22 -63
19 -17 -4 -20 -1 -20 22 0 28 0 28 20 10 16 -14 23 -16 32 -7z m552 -33 c7
-27 6 -29 -9 -14 -9 9 -13 23 -9 33 8 21 9 19 18 -19z m-1119 -66 c-8 -12 -45
-12 -45 0 0 5 10 7 22 3 16 -4 19 -2 13 8 -5 9 -4 11 4 6 6 -4 9 -12 6 -17z"/>
<path d="M990 1195 c-14 -8 -34 -15 -45 -15 -17 0 -17 -2 -5 -10 23 -15 67
-12 84 6 33 33 11 45 -34 19z"/>
<path d="M685 1190 c-3 -5 3 -10 14 -10 12 0 21 5 21 10 0 6 -6 10 -14 10 -8
0 -18 -4 -21 -10z"/>
<path d="M567 1103 c-4 -3 -7 -11 -7 -17 0 -6 5 -5 12 2 6 6 9 14 7 17 -3 3
-9 2 -12 -2z"/>
<path d="M1935 1066 c-16 -7 -48 -11 -70 -9 l-40 3 40 -19 c72 -34 78 -34 96
4 18 39 17 40 -26 21z"/>
<path d="M2055 1040 c3 -5 11 -10 16 -10 6 0 7 5 4 10 -3 6 -11 10 -16 10 -6
0 -7 -4 -4 -10z"/>
<path d="M2020 1016 c0 -2 7 -6 15 -10 8 -3 15 -1 15 4 0 6 -7 10 -15 10 -8 0
-15 -2 -15 -4z"/>
<path d="M1920 955 c-7 -8 -8 -15 -2 -15 5 0 15 7 22 15 7 8 8 15 2 15 -5 0
-15 -7 -22 -15z"/>
<path d="M2000 945 c-7 -8 -8 -15 -2 -15 5 0 15 7 22 15 7 8 8 15 2 15 -5 0
-15 -7 -22 -15z"/>
<path d="M1195 934 c-27 -8 -66 -12 -85 -9 -19 2 -62 6 -95 7 l-59 3 1 -93 c3
-100 21 -160 62 -196 32 -29 36 -12 7 27 -34 45 -28 76 24 117 104 82 303 139
345 99 5 -5 25 -9 45 -9 19 -1 46 -7 60 -15 14 -8 34 -15 45 -15 11 -1 45 -14
75 -29 l55 -27 -3 -44 c-4 -63 -46 -147 -84 -166 -22 -11 -27 -19 -20 -26 18
-18 79 31 103 81 11 25 27 72 34 105 8 34 17 71 21 84 7 25 4 26 -30 11 -21
-10 -32 -8 -70 15 -24 14 -52 26 -60 26 -9 0 -33 9 -53 20 -21 11 -52 20 -69
20 -17 0 -51 7 -74 15 -52 18 -108 18 -175 -1z"/>
<path d="M2053 925 c-9 -24 0 -25 27 -5 l25 20 -23 0 c-12 0 -25 -7 -29 -15z"/>
<path d="M857 904 c-13 -14 -7 -65 9 -71 25 -9 39 13 28 44 -9 27 -25 39 -37
27z m23 -34 c0 -11 -4 -20 -10 -20 -5 0 -10 9 -10 20 0 11 5 20 10 20 6 0 10
-9 10 -20z"/>
<path d="M1945 816 c-3 -9 -7 -22 -9 -30 -3 -8 1 -22 8 -31 11 -15 13 -15 28
2 9 10 18 29 20 43 2 20 -2 26 -20 28 -13 2 -24 -3 -27 -12z m35 -5 c0 -17
-12 -41 -21 -41 -10 0 -12 33 -2 43 9 10 23 9 23 -2z"/>
<path d="M2188 1552 c-3 -9 -1 -26 3 -37 6 -15 8 -11 8 18 1 40 -4 48 -11 19z"/>
<path d="M741 554 c0 -11 3 -14 6 -6 3 7 2 16 -1 19 -3 4 -6 -2 -5 -13z"/>
<path d="M1683 294 c16 -8 31 -13 35 -10 8 8 1 12 -33 20 l-30 6 28 -16z"/>
<path d="M547 2404 c-9 -10 12 -34 30 -34 19 0 12 34 -8 38 -8 1 -18 0 -22 -4z"/>
<path d="M160 2391 c0 -5 5 -13 10 -16 6 -3 10 -2 10 4 0 5 -4 13 -10 16 -5 3
-10 2 -10 -4z"/>
<path d="M740 2380 c0 -5 5 -10 10 -10 6 0 10 5 10 10 0 6 -4 10 -10 10 -5 0
-10 -4 -10 -10z"/>
<path d="M454 2345 c-14 -14 -30 -25 -36 -25 -15 0 -158 -92 -158 -102 0 -29
102 5 155 52 11 10 31 21 45 25 37 11 50 25 50 51 0 32 -24 31 -56 -1z"/>
<path d="M2493 2355 c-26 -18 -31 -66 -9 -84 8 -7 28 -16 46 -21 27 -8 35 -6
56 15 28 28 23 52 -14 62 -15 3 -33 15 -42 25 -14 17 -17 17 -37 3z"/>
<path d="M2366 2301 c38 -27 71 -47 73 -45 6 6 -60 64 -90 80 -58 30 -49 12
17 -35z"/>
<path d="M85 2320 c-3 -5 1 -10 10 -10 9 0 13 5 10 10 -3 6 -8 10 -10 10 -2 0
-7 -4 -10 -10z"/>
<path d="M1923 2283 c9 -2 23 -2 30 0 6 3 -1 5 -18 5 -16 0 -22 -2 -12 -5z"/>
<path d="M1990 2266 c0 -3 9 -10 20 -16 11 -6 20 -8 20 -6 0 3 -9 10 -20 16
-11 6 -20 8 -20 6z"/>
<path d="M2040 2246 c0 -8 5 -18 10 -21 6 -3 10 1 10 9 0 8 -4 18 -10 21 -5 3
-10 -1 -10 -9z"/>
<path d="M2476 2216 c6 -17 34 -30 34 -16 0 5 -9 14 -20 20 -16 8 -18 8 -14
-4z"/>
<path d="M2540 2200 c0 -5 6 -10 14 -10 8 0 18 5 21 10 3 6 -3 10 -14 10 -12
0 -21 -4 -21 -10z"/>
<path d="M2542 2151 c-42 -17 -55 -38 -19 -34 31 5 87 32 87 42 0 14 -16 12
-68 -8z"/>
<path d="M4 1986 c-3 -8 -4 -27 -2 -43 2 -23 8 -28 35 -31 27 -3 35 1 44 21
16 36 -3 67 -42 67 -16 0 -32 -6 -35 -14z"/>
<path d="M2151 1954 c0 -11 3 -14 6 -6 3 7 2 16 -1 19 -3 4 -6 -2 -5 -13z"/>
<path d="M177 1813 c-4 -3 -7 -11 -7 -17 0 -6 5 -5 12 2 6 6 9 14 7 17 -3 3
-9 2 -12 -2z"/>
<path d="M0 1575 c0 -36 3 -65 8 -65 21 0 70 41 74 63 6 30 1 40 -29 56 -45
24 -53 16 -53 -54z"/>
<path d="M27 1482 c-26 -3 -27 -6 -27 -58 0 -60 7 -64 69 -43 48 17 41 41 -11
37 -33 -2 -43 0 -43 12 0 9 11 16 28 18 15 2 27 10 27 17 0 18 -9 21 -43 17z"/>
<path d="M125 1339 c-4 -6 -13 -8 -21 -5 -18 7 -28 -12 -14 -28 9 -12 16 -12
41 1 24 12 28 18 18 29 -14 17 -16 17 -24 3z"/>
<path d="M170 1328 c0 -16 -9 -29 -25 -38 -29 -15 -28 -37 1 -32 31 6 55 34
52 61 -4 33 -28 40 -28 9z"/>
<path d="M50 1220 c0 -95 9 -150 25 -150 8 0 14 29 19 87 6 84 6 88 -19 112
l-25 26 0 -75z"/>
<path d="M2386 1105 c-9 -26 -7 -32 5 -12 6 10 9 21 6 23 -2 3 -7 -2 -11 -11z"/>
<path d="M2372 1000 c0 -14 2 -19 5 -12 2 6 2 18 0 25 -3 6 -5 1 -5 -13z"/>
<path d="M135 963 c-11 -3 -46 -16 -77 -30 l-58 -26 0 -137 c0 -103 4 -145 15
-166 20 -38 19 -64 -2 -80 -17 -13 -17 -14 0 -8 11 4 17 1 17 -10 0 -25 15
-19 29 11 l12 26 39 -38 c54 -53 52 -71 -6 -79 -26 -3 -60 -6 -75 -6 -29 0
-29 -1 -29 -59 0 -63 6 -71 58 -71 30 0 46 19 57 68 4 19 13 32 22 32 11 0 14
-6 9 -22 -3 -13 -6 -31 -6 -40 0 -10 -8 -26 -17 -36 -25 -26 -45 -63 -39 -69
3 -3 17 2 30 11 14 8 27 12 31 7 8 -14 -48 -57 -100 -76 -47 -18 -60 -46 -33
-73 8 -8 8 -15 -2 -26 -7 -9 -10 -26 -6 -41 7 -26 7 -26 102 -23 l96 3 33 116
c19 64 48 138 66 167 45 72 43 129 -6 203 -31 46 -35 60 -31 94 3 28 -1 48
-14 70 -12 19 -20 55 -22 91 -2 32 -7 65 -11 71 -4 7 -5 24 -1 38 3 14 3 45 0
70 -7 41 -10 45 -34 44 -15 -1 -36 -3 -47 -6z m44 -91 c0 -16 -3 -21 -6 -12
-3 8 -13 19 -21 24 -12 7 -12 10 -1 17 19 11 29 1 28 -29z m-29 -34 c18 -13
30 -31 30 -44 0 -13 5 -26 10 -29 6 -3 10 -13 10 -20 0 -20 -27 -9 -72 29 -20
17 -47 39 -60 48 l-23 16 25 11 c37 15 48 13 80 -11z m-72 -500 c-3 -7 -17
-13 -33 -13 -16 0 -30 6 -32 13 -3 8 7 12 32 12 25 0 35 -4 33 -12z"/>
<path d="M2347 941 c-4 -17 -3 -21 5 -13 5 5 8 16 6 23 -3 8 -7 3 -11 -10z"/>
<path d="M2310 765 c-7 -9 -10 -18 -7 -21 3 -3 10 4 17 15 13 25 8 27 -10 6z"/>
<path d="M2281 686 c-8 -9 -11 -19 -7 -23 9 -9 29 13 24 27 -2 8 -8 7 -17 -4z"/>
<path d="M385 661 c-42 -19 -95 -72 -95 -96 0 -17 23 -25 71 -25 45 0 50 -13
13 -32 -34 -16 -33 -32 2 -36 15 -2 36 -15 46 -28 21 -26 53 -31 93 -12 41 18
32 39 -16 36 -51 -4 -66 19 -20 28 44 9 40 34 -4 34 -42 0 -49 26 -10 36 27 7
65 48 65 70 0 44 -75 57 -145 25z"/>
<path d="M580 625 c0 -4 7 -13 15 -21 8 -9 15 -12 15 -8 0 3 6 1 14 -5 11 -9
12 -6 8 16 -3 16 -7 22 -9 16 -3 -9 -10 -10 -24 -3 -10 6 -19 8 -19 5z"/>
<path d="M2374 620 c-37 -15 -64 -59 -64 -104 0 -98 110 -152 181 -88 26 23
33 38 37 80 4 50 3 54 -32 87 -39 36 -76 44 -122 25z m80 -51 c50 -39 24 -119
-38 -119 -19 0 -39 7 -47 16 -21 25 -14 85 11 106 29 23 41 23 74 -3z"/>
<path d="M2394 539 c-3 -6 1 -18 9 -27 13 -12 19 -13 31 -3 8 7 12 19 9 27 -6
17 -39 19 -49 3z"/>
<path d="M2253 606 c3 -8 2 -16 -2 -18 -4 -2 -10 -30 -14 -63 -3 -36 -2 -52 3
-40 5 11 9 31 9 45 1 14 7 37 15 52 12 23 12 27 -1 32 -10 4 -13 2 -10 -8z"/>
<path d="M558 578 c-6 -17 14 -65 27 -66 6 -1 11 -10 13 -22 2 -11 11 -20 20
-20 12 0 13 3 4 12 -7 7 -12 18 -12 26 0 8 -11 23 -25 33 -14 12 -22 26 -18
34 3 8 3 15 0 15 -3 0 -7 -6 -9 -12z"/>
<path d="M633 563 c-7 -2 -13 -14 -13 -24 0 -13 4 -18 12 -13 8 5 9 2 5 -9 -3
-10 -3 -17 2 -17 5 0 11 11 13 25 3 14 1 25 -4 25 -5 0 -6 5 -3 10 7 11 6 11
-12 3z"/>
<path d="M2195 530 c-19 -37 -19 -54 0 -70 13 -10 15 -9 15 8 0 12 5 24 10 27
13 8 13 65 0 65 -5 0 -16 -13 -25 -30z"/>
<path d="M2096 461 c-21 -24 -76 -211 -76 -261 0 -90 96 -125 135 -50 11 22
13 56 8 161 -3 74 -10 142 -15 152 -11 22 -31 22 -52 -2z"/>
<path d="M370 425 c0 -8 5 -15 10 -15 19 0 10 -23 -25 -66 -48 -58 -79 -122
-109 -229 -31 -106 -32 -115 -7 -115 14 0 20 10 25 38 3 20 34 93 69 162 l63
125 42 3 c23 2 42 1 42 -2 0 -24 -26 -118 -41 -148 -31 -62 -38 -52 -13 20 13
37 24 75 24 85 0 38 -23 9 -45 -53 -33 -94 -50 -129 -91 -182 l-36 -48 25 0
c15 0 31 9 41 25 9 14 34 36 55 50 54 33 101 130 108 219 7 76 -4 96 -49 96
-18 0 -39 10 -54 25 -29 29 -34 31 -34 10z"/>
<path d="M610 397 c0 -14 -9 -31 -22 -40 -31 -20 -13 -35 20 -16 20 11 27 23
27 44 0 15 -6 30 -12 33 -8 2 -13 -6 -13 -21z"/>
<path d="M553 403 c-21 -4 -30 -22 -17 -35 8 -9 65 23 59 33 -4 5 -9 8 -13 8
-4 -1 -17 -4 -29 -6z"/>
<path d="M2286 401 c-4 -5 14 -48 39 -95 25 -48 45 -92 45 -100 0 -24 33 -45
58 -35 29 11 28 19 -15 100 -54 101 -110 158 -127 130z"/>
<path d="M2211 351 c-23 -32 -25 -40 -12 -60 12 -19 52 22 54 56 3 37 -17 39
-42 4z"/>
<path d="M2420 350 c20 -13 40 -13 40 0 0 6 -12 10 -27 10 -22 0 -25 -2 -13
-10z"/>
<path d="M2476 349 c2 -4 -2 -9 -10 -12 -18 -7 -14 -47 7 -78 19 -27 23 -18 5
11 -15 23 6 70 31 70 9 0 22 4 30 9 10 6 1 9 -26 8 -23 -1 -39 -5 -37 -8z"/>
<path d="M2585 329 c-12 -18 3 -22 20 -5 14 14 14 16 1 16 -8 0 -18 -5 -21
-11z"/>
<path d="M2506 317 c-22 -7 -25 -13 -19 -30 4 -12 8 -40 7 -61 0 -22 2 -34 4
-28 2 7 16 12 30 12 l26 0 -22 16 c-12 8 -22 22 -22 30 0 20 20 17 21 -3 1
-10 6 -3 11 15 6 17 15 32 19 32 5 0 9 6 9 13 0 15 -27 16 -64 4z m31 -34 c-3
-10 -5 -4 -5 12 0 17 2 24 5 18 2 -7 2 -21 0 -30z m-17 18 c0 -6 -4 -13 -10
-16 -5 -3 -10 1 -10 9 0 9 5 16 10 16 6 0 10 -4 10 -9z"/>
<path d="M2260 305 c0 -5 5 -17 10 -25 5 -8 10 -10 10 -5 0 6 -5 17 -10 25 -5
8 -10 11 -10 5z"/>
<path d="M2611 284 c0 -11 3 -14 6 -6 3 7 2 16 -1 19 -3 4 -6 -2 -5 -13z"/>
<path d="M2230 270 c0 -5 7 -10 16 -10 8 0 12 5 9 10 -3 6 -10 10 -16 10 -5 0
-9 -4 -9 -10z"/>
<path d="M2667 250 c-3 -11 -1 -20 4 -20 5 0 9 9 9 20 0 11 -2 20 -4 20 -2 0
-6 -9 -9 -20z"/>
<path d="M2275 205 c3 -35 2 -44 -4 -30 -8 15 -10 9 -10 -28 -1 -56 -20 -61
-36 -9 -12 42 -28 36 -39 -16 -7 -35 -14 -44 -42 -54 -18 -6 -31 -15 -28 -20
7 -11 -24 -10 -47 2 -11 6 -19 7 -19 2 0 -6 9 -12 20 -15 11 -3 20 -10 20 -15
0 -7 -10 -6 -29 1 -17 6 -28 15 -25 19 3 4 -4 8 -15 8 -12 0 -21 5 -21 11 0 6
9 8 23 4 17 -6 19 -5 10 5 -15 17 -73 3 -73 -17 0 -13 3 -13 15 -3 13 11 15 8
15 -19 0 -17 5 -31 10 -31 5 0 9 3 9 7 -4 26 1 34 15 21 8 -7 10 -15 5 -19 -5
-3 41 -6 102 -7 l112 -2 -6 45 c-4 41 -3 45 14 40 16 -5 19 -1 19 26 0 18 7
41 17 51 13 14 14 23 5 41 -6 12 -13 29 -16 37 -3 8 -4 -7 -1 -35z m-85 -151
c0 -8 -4 -12 -10 -9 -5 3 -10 10 -10 16 0 5 5 9 10 9 6 0 10 -7 10 -16z m0
-34 c0 -5 -5 -10 -11 -10 -5 0 -7 5 -4 10 3 6 8 10 11 10 2 0 4 -4 4 -10z"/>
<path d="M2557 239 c7 -7 15 -10 18 -7 3 3 -2 9 -12 12 -14 6 -15 5 -6 -5z"/>
<path d="M2245 223 c-4 -13 -11 -20 -16 -17 -12 7 -11 6 7 -41 l15 -40 -6 37
c-3 23 -1 38 6 40 6 2 9 13 6 23 -5 19 -5 19 -12 -2z"/>
<path d="M2296 225 c4 -8 8 -15 10 -15 2 0 4 7 4 15 0 8 -4 15 -10 15 -5 0 -7
-7 -4 -15z"/>
<path d="M2590 220 c0 -5 7 -10 16 -10 8 0 12 5 9 10 -3 6 -10 10 -16 10 -5 0
-9 -4 -9 -10z"/>
<path d="M2665 210 c-3 -5 -2 -10 4 -10 5 0 13 5 16 10 3 6 2 10 -4 10 -5 0
-13 -4 -16 -10z"/>
<path d="M2322 178 c-1 -10 -6 -18 -12 -18 -21 0 -9 -28 15 -34 16 -4 25 -13
25 -27 0 -11 4 -18 9 -14 5 3 13 0 17 -6 4 -8 3 -9 -4 -5 -7 4 -16 -3 -21 -18
-8 -19 -15 -23 -32 -19 -16 4 -20 2 -17 -8 3 -8 11 -14 19 -14 8 0 17 -4 21
-10 5 -6 8 -3 8 6 0 9 7 23 17 30 14 13 16 11 11 -11 -4 -22 -1 -25 30 -28
l35 -2 -27 21 c-15 12 -26 30 -26 44 0 13 -4 26 -10 30 -5 3 -7 12 -3 20 4 11
1 13 -11 9 -11 -4 -16 -1 -16 12 0 15 -2 16 -9 5 -7 -11 -11 -6 -14 20 -2 19
-5 26 -5 17z"/>
<path d="M2522 148 c-42 -14 -82 -52 -82 -78 0 -30 21 -34 81 -16 70 21 119
21 119 0 0 -12 -7 -14 -30 -9 -30 7 -35 1 -24 -29 10 -25 37 -19 77 17 46 40
51 72 15 99 -31 24 -108 32 -156 16z"/>
<path d="M577 73 c-15 -54 -17 -73 -7 -73 6 0 8 5 5 10 -3 6 -1 10 4 10 6 0
11 -4 11 -10 0 -5 5 -10 10 -10 15 0 12 16 -5 34 -19 19 -19 36 0 36 9 0 12
-6 8 -17 -5 -12 -2 -15 9 -11 11 5 14 1 11 -16 -3 -15 0 -23 9 -23 8 0 15 6
15 13 0 7 -5 11 -10 7 -5 -3 -6 3 -3 14 5 15 0 25 -18 37 -31 20 -34 20 -39
-1z"/>
<path d="M2327 65 c-4 -8 -2 -17 3 -20 6 -4 10 3 10 14 0 25 -6 27 -13 6z"/>
<path d="M2251 54 c0 -11 3 -14 6 -6 3 7 2 16 -1 19 -3 4 -6 -2 -5 -13z"/>
<path d="M2737 63 c-12 -11 -8 -23 8 -23 8 0 15 7 15 15 0 16 -12 20 -23 8z"/>
<path d="M2278 30 c-7 -24 -3 -38 8 -28 3 4 4 17 2 30 l-3 23 -7 -25z"/>
<path d="M1960 14 c0 -8 5 -12 10 -9 6 4 8 11 5 16 -9 14 -15 11 -15 -7z"/>
<path d="M2495 10 c-4 -6 5 -10 19 -10 14 0 26 5 26 10 0 6 -9 10 -19 10 -11
0 -23 -4 -26 -10z"/>
<path d="M2778 3 c7 -3 16 -2 19 1 4 3 -2 6 -13 5 -11 0 -14 -3 -6 -6z"/>
</g>
</svg>
